<?xml version="1.0" encoding="utf-8"?>
<!-- Generator: Adobe Illustrator 28.1.0, SVG Export Plug-In . SVG Version: 6.00 Build 0)  -->
<svg version="1.1" id="Layer_1" xmlns="http://www.w3.org/2000/svg" xmlns:xlink="http://www.w3.org/1999/xlink" x="0px" y="0px"
	 viewBox="0 0 24 24" style="enable-background:new 0 0 24 24;" xml:space="preserve">
<style type="text/css">
	.st0{fill:#1F363D;}
	.st1{font-family:'Canela-Regular';}
	.st2{font-size:3px;}
</style>
<path class="st0" d="M11.1,16.5c-0.2-0.3-0.2-0.6-0.5-1c-0.2-0.3-0.4-0.6-0.6-0.8c-0.2-0.2-0.6-0.5-0.8-0.6c-0.3-0.2-0.6-0.3-1-0.5
	c0,0.4,0.2,0.7,0.2,1.1C8.6,15,8.8,15.3,9,15.6c0.2,0.2,0.6,0.5,0.9,0.6C10.2,16.4,10.6,16.5,11.1,16.5z M13.2,16.5
	c0.4,0,0.7-0.2,1-0.3c0.3-0.2,0.6-0.4,0.9-0.6c0.2-0.2,0.5-0.6,0.6-0.9c0.2-0.3,0.2-0.7,0.3-1.1c-0.3,0.1-0.6,0.2-1,0.5
	c-0.3,0.2-0.6,0.4-0.8,0.6c-0.2,0.2-0.5,0.6-0.6,0.8S13.3,16.2,13.2,16.5z M12.1,9.3c0.9,0,1.6-0.3,2.3-1c0.6-0.6,1-1.4,1-2.3V5
	l-1.5,1.2L12.1,4l-1.8,2.3L8.9,5.1v1c0,0.9,0.3,1.6,1,2.3C10.5,8.9,11.2,9.3,12.1,9.3z M11.3,18.2c-1.4,0-2.5-0.5-3.4-1.5
	c-0.9-1-1.5-2-1.5-3.4v-1.6c1,0,1.9,0.2,2.7,0.6c0.9,0.4,1.5,1,2.1,1.6v-3.1c-1.1-0.2-2.1-0.7-2.9-1.6s-1-2-1-3.2V3.3
	c0-0.3,0.2-0.6,0.5-0.7s0.6-0.1,0.9,0.1l1.4,1.2l1.4-1.7C11.6,2.1,11.9,2,12.1,2s0.5,0.1,0.6,0.3L14.1,4l1.5-1.3
	c0.2-0.2,0.6-0.2,0.9-0.2c0.2,0.2,0.4,0.4,0.4,0.7V6c0,1.2-0.4,2.3-1.1,3.1c-0.8,0.9-1.7,1.5-2.9,1.6v3.1c0.6-0.7,1.3-1.2,2.2-1.6
	c0.9-0.4,1.7-0.6,2.7-0.6v1.6c0,1.4-0.5,2.5-1.5,3.4c-0.9,1-2,1.5-3.4,1.5h-1.6V18.2z"/>
<text transform="matrix(1 0 0 1 4.9171 21.248)" class="st0 st1 st2">FLORALSY</text>
</svg>
